<?xml version="1.0" encoding="utf-8"?>
<!-- Generator: Adobe Illustrator 23.1.1, SVG Export Plug-In . SVG Version: 6.00 Build 0)  -->
<svg version="1.1" id="Layer_1" xmlns="http://www.w3.org/2000/svg" xmlns:xlink="http://www.w3.org/1999/xlink" x="0px" y="0px"
	 viewBox="0 0 132.47 173.47" style="enable-background:new 0 0 132.47 173.47;" xml:space="preserve">
<style type="text/css">
	.st0{fill:#21362C;}
</style>
<g>
	<path class="st0" d="M24.85,146.09l-1.69-2.29l1.77-3.6l-0.8-0.34l-2.51,1.85l-1.5-2.04l7.5-5.53l1.5,2.04l-3.26,2.4
		c0.28-0.05,0.75-0.07,1.42-0.09l3.46-0.12l1.63,2.22l-5.1,0.11L24.85,146.09z"/>
	<path class="st0" d="M31.34,152.27l-4.06-3.75l6.32-6.84l4.06,3.75l-1.37,1.48l-2.21-2.05l-0.99,1.08l2.05,1.89l-1.37,1.48
		l-2.05-1.89l-1.19,1.29l2.21,2.05L31.34,152.27z"/>
	<path class="st0" d="M42.22,159.41l-2.84-1.68l0.41-7.38l-0.05-0.03c-0.46,0.93-0.82,1.63-1.1,2.1l-2.14,3.61l-1.92-1.14l4.74-8.02
		l2.83,1.67l-0.38,7.3l0.03,0.02c0.43-0.84,0.79-1.5,1.08-1.99l2.14-3.62l1.93,1.14L42.22,159.41z"/>
	<path class="st0" d="M55.54,158.92c-0.46,1.49-1.22,2.5-2.28,3.06c-1.07,0.55-2.34,0.6-3.82,0.14l-2.88-0.89l2.74-8.9l3.08,0.95
		c1.43,0.44,2.42,1.14,2.97,2.11C55.9,156.37,55.96,157.54,55.54,158.92z M53.02,158.24c0.25-0.82,0.28-1.47,0.07-1.96
		c-0.2-0.49-0.63-0.84-1.29-1.04l-0.7-0.22l-1.53,4.99l0.54,0.16c0.73,0.22,1.33,0.18,1.8-0.14S52.75,159.11,53.02,158.24z"/>
	<path class="st0" d="M63.7,164.77l-5.5-0.55l0.92-9.27l5.5,0.55l-0.2,2.01l-3-0.3l-0.14,1.46l2.78,0.28l-0.2,2.01l-2.78-0.28
		l-0.17,1.75l3,0.3L63.7,164.77z"/>
	<path class="st0" d="M69.93,161.24l0.3,3.38l-2.51,0.22l-0.82-9.28l3.04-0.27c2.52-0.22,3.86,0.58,4.02,2.41
		c0.09,1.07-0.36,1.95-1.35,2.63l3.06,3.8l-2.84,0.25l-2.27-3.2L69.93,161.24z M69.76,159.35l0.47-0.04
		c0.88-0.08,1.28-0.5,1.21-1.28c-0.06-0.64-0.51-0.92-1.37-0.84l-0.5,0.04L69.76,159.35z"/>
	<path class="st0" d="M78.89,163.35l-2.61-8.94l2.42-0.71l2.04,6.99l3.44-1.01l0.57,1.95L78.89,163.35z"/>
	<path class="st0" d="M85.85,150.18l-0.09-0.16c0.25-0.92,0.41-1.52,0.47-1.78c0.06-0.26,0.1-0.49,0.13-0.69l2.41-1.27l0.06,0.12
		c-0.17,0.4-0.43,0.92-0.76,1.57c-0.33,0.65-0.59,1.13-0.77,1.44L85.85,150.18z M93.49,157.52l-1.22-1.33l-2.68,1.41l0.4,1.76
		l-2.45,1.29l-1.67-9.69l2.97-1.57l7.08,6.84L93.49,157.52z M90.85,154.61l-1.07-1.17c-0.24-0.26-0.55-0.59-0.92-1.01
		c-0.37-0.41-0.63-0.72-0.77-0.9c0.07,0.21,0.17,0.56,0.3,1.05c0.13,0.49,0.37,1.47,0.71,2.95L90.85,154.61z"/>
	<path class="st0" d="M105.62,148.25l-2.48,2.18l-6.89-2.68l-0.04,0.04c0.74,0.72,1.29,1.29,1.65,1.7l2.77,3.15l-1.67,1.47l-6.15-7
		l2.47-2.17l6.82,2.62l0.03-0.03c-0.66-0.67-1.18-1.21-1.56-1.64l-2.78-3.16l1.68-1.48L105.62,148.25z"/>
	<path class="st0" d="M105.09,137.06c-0.35,0.48-0.43,1.01-0.23,1.57s0.65,1.09,1.35,1.6c1.45,1.05,2.58,1.03,3.38-0.08
		c0.24-0.33,0.43-0.69,0.56-1.07c0.13-0.38,0.25-0.78,0.35-1.19l1.72,1.25c-0.18,0.83-0.55,1.64-1.13,2.44
		c-0.83,1.14-1.79,1.77-2.89,1.9c-1.1,0.13-2.27-0.26-3.52-1.17c-0.78-0.57-1.36-1.21-1.74-1.93c-0.38-0.72-0.53-1.48-0.44-2.26
		c0.08-0.78,0.39-1.55,0.93-2.29c0.59-0.81,1.33-1.47,2.23-1.95l1.15,1.79c-0.33,0.18-0.64,0.38-0.94,0.6
		C105.58,136.47,105.32,136.74,105.09,137.06z"/>
	<path class="st0" d="M127.25,40.45c-3.34-7.89-8.11-14.97-14.18-21.05c-6.07-6.07-13.16-10.85-21.05-14.18
		C83.84,1.75,75.16,0,66.23,0C57.3,0,48.63,1.75,40.45,5.22C32.56,8.55,25.47,13.32,19.4,19.4C13.32,25.47,8.55,32.56,5.22,40.45
		c-2.53,5.98-4.14,12.22-4.83,18.63c-0.1,0.17-0.18,0.36-0.2,0.58c-0.03,0.24,0.01,0.47,0.08,0.68C0.09,62.28,0,64.25,0,66.23v41
		c0,8.93,1.75,17.61,5.22,25.79c3.34,7.89,8.11,14.97,14.18,21.05c6.07,6.07,13.16,10.85,21.05,14.18
		c8.18,3.46,16.86,5.22,25.79,5.22s17.61-1.75,25.79-5.22c7.89-3.34,14.97-8.11,21.05-14.18c6.07-6.07,10.85-13.16,14.18-21.05
		c3.46-8.18,5.22-16.86,5.22-25.79v-41C132.47,57.3,130.71,48.63,127.25,40.45z M2.9,66.23c0-1.59,0.06-3.18,0.18-4.76l22.17,2.82
		c-0.03,0.64-0.05,1.29-0.05,1.94v19.05H2.9V66.23z M39.26,39.26c7.2-7.2,16.78-11.17,26.97-11.17S86,32.06,93.21,39.26
		c2.05,2.05,3.84,4.3,5.35,6.69c0.05,0.17,0.12,0.34,0.24,0.49c0.06,0.08,0.13,0.15,0.2,0.22c2.9,4.83,4.68,10.25,5.21,15.93
		c-0.04,0.16,0.03,0.75,0.07,0.87c0.07,0.92,0.1,1.84,0.1,2.77v41c0,2.53-0.24,5.02-0.72,7.44c-0.22-0.02-0.44,0-0.66,0.08
		l-2.73,1.01c-4.32,1.57-8.87,2.37-13.52,2.37c-6.6,0-13.09-1.65-18.85-4.77c-0.03-0.07-0.06-0.14-0.09-0.2
		c-0.04-0.06-0.08-0.12-0.13-0.17V97.84c2.76,1.46,8.62,4.03,15.49,4.03c9.37,0,16.87-4.79,17.18-5l1.87-1.21l-1.87-1.21
		c-0.31-0.2-7.81-5-17.18-5c-0.47,0-0.94,0.02-1.41,0.04c2.7-1.62,5.49-3.67,8.06-6.23c9.04-9.04,11.64-20.89,11.75-21.39l0.46-2.18
		l-2.18,0.46c-0.5,0.11-12.35,2.71-21.39,11.75c-1.68,1.68-3.13,3.45-4.39,5.22c1.07-4.22,1.83-9.03,1.83-14.16
		c0-16.7-8.1-30.04-8.44-30.6l-1.23-2l-1.23,2c-0.34,0.56-8.44,13.9-8.44,30.6c0,5.13,0.76,9.94,1.83,14.16
		c-1.26-1.78-2.71-3.55-4.39-5.22c-9.04-9.04-20.89-11.64-21.39-11.75l-2.18-0.46l0.46,2.18c0.11,0.5,2.71,12.35,11.75,21.39
		c2.57,2.57,5.36,4.61,8.06,6.23c-0.46-0.02-0.93-0.04-1.41-0.04c-9.37,0-16.87,4.79-17.18,5l-1.87,1.21l1.87,1.21
		c0.31,0.2,7.81,5,17.18,5c6.87,0,12.73-2.57,15.49-4.03v15.3c-0.02,0.02-0.03,0.04-0.05,0.07c-0.01,0.03-0.02,0.05-0.04,0.08
		c-5.8,3.17-12.33,4.84-18.99,4.84c-4.48,0-8.88-0.74-13.07-2.21c-0.03-0.01-0.07-0.02-0.11-0.03l-3.68-0.98c0,0,0,0,0,0
		c-0.51-2.5-0.77-5.07-0.77-7.68v-41C28.09,56.05,32.06,46.47,39.26,39.26z M66.23,89.78c-2.25-4.42-6.78-14.81-6.78-26.82
		c0-11.98,4.53-22.39,6.78-26.81c2.25,4.42,6.78,14.83,6.78,26.81C73.01,74.94,68.48,85.35,66.23,89.78z M69.8,95.66
		c2.75-1.34,7.74-3.32,13.37-3.32c5.64,0,10.63,1.98,13.38,3.32c-2.74,1.34-7.72,3.32-13.38,3.32C77.54,98.98,72.54,97,69.8,95.66z
		 M70.21,91.5c1.2-3.81,4.2-11.46,10.3-17.56c6.09-6.09,13.75-9.1,17.57-10.3c-1.2,3.81-4.2,11.46-10.3,17.56
		C81.68,87.3,74.02,90.3,70.21,91.5z M62.26,91.51c-3.81-1.2-11.46-4.2-17.56-10.3c-6.09-6.09-9.1-13.75-10.3-17.56
		c3.81,1.2,11.47,4.21,17.56,10.3C58.05,80.03,61.05,87.7,62.26,91.51z M62.67,95.66c-2.75,1.34-7.74,3.32-13.37,3.32
		S38.67,97,35.92,95.66c2.75-1.34,7.74-3.32,13.37-3.32S59.93,94.32,62.67,95.66z M31.74,118.67c4.48,1.56,9.18,2.35,13.97,2.35
		c7.2,0,14.26-1.82,20.52-5.28c6.26,3.45,13.33,5.28,20.52,5.28c4.98,0,9.86-0.86,14.52-2.54l1.61-0.6
		c-1.77,6.11-5.05,11.7-9.67,16.32c-7.2,7.2-16.78,11.17-26.97,11.17s-19.77-3.97-26.97-11.17c-4.56-4.56-7.82-10.07-9.6-16.08
		L31.74,118.67z M107.22,64.17l22.16-2.81c0.12,1.62,0.19,3.24,0.19,4.88v19.05h-22.3V66.23C107.28,65.54,107.26,64.85,107.22,64.17
		z M129.1,58.47l-22.12,2.81c-0.67-5.53-2.43-10.72-5.07-15.35l17.97-13.39c1.8,2.87,3.38,5.88,4.71,9.03
		C126.88,47,128.39,52.66,129.1,58.47z M118.28,30.12l-17.9,13.34c-3.32-4.97-7.71-9.18-12.82-12.3L99.14,12.1
		c4.3,2.62,8.28,5.74,11.88,9.34C113.71,24.14,116.13,27.04,118.28,30.12z M96.63,10.66l-11.6,19.09c-5.23-2.7-11.11-4.3-17.35-4.52
		c0-0.01,0-0.02,0-0.03V2.91c8.03,0.18,15.83,1.85,23.21,4.97C92.86,8.71,94.77,9.64,96.63,10.66z M41.57,7.88
		c7.38-3.12,15.18-4.79,23.21-4.97v22.28c0,0.01,0,0.02,0,0.03c-6.51,0.23-12.63,1.96-18.02,4.88c-0.03-0.1-0.08-0.2-0.13-0.29
		l-11.43-18.8C37.26,9.85,39.38,8.81,41.57,7.88z M21.45,21.45c3.43-3.43,7.2-6.43,11.27-8.96l11.44,18.83
		c0.05,0.08,0.1,0.15,0.16,0.22c-5.03,3.18-9.32,7.43-12.55,12.42L13.86,30.6C16.09,27.34,18.62,24.28,21.45,21.45z M7.88,41.57
		c1.26-2.97,2.73-5.82,4.4-8.54l17.99,13.4c-2.5,4.53-4.17,9.59-4.8,14.96L3.35,58.59C4.06,52.74,5.57,47.04,7.88,41.57z
		 M124.59,131.89c-3.19,7.54-7.76,14.32-13.56,20.13c-5.81,5.81-12.58,10.37-20.13,13.56c-7.82,3.31-16.12,4.99-24.66,4.99
		s-16.84-1.68-24.66-4.99c-7.54-3.19-14.32-7.76-20.13-13.56c-5.81-5.81-10.37-12.58-13.56-20.13c-3.31-7.82-4.99-16.12-4.99-24.66
		V88.18h22.3v19.05c0,22.67,18.37,41.04,41.04,41.04s41.04-18.37,41.04-41.04V88.18h22.3v19.05
		C129.57,115.77,127.9,124.07,124.59,131.89z"/>
</g>
</svg>
