<svg width="19" height="23" xmlns="http://www.w3.org/2000/svg"><path d="M18 7H2V5.333C2 5.15 2.163 5 2.364 5h15.272c.2 0 .364.15.364.333V7zM7 2c0-.551.374-1 .833-1h3.334c.46 0 .833.449.833 1v1H7V2zm6.154.875v-.719C13.154.967 12.17 0 10.962 0H8.038C6.83 0 5.846.967 5.846 2.156v.719h-4.02C.82 2.875 0 3.681 0 4.672v2.516c0 .396.327.718.73.718h.4l.631 13.04C1.817 22.098 2.78 23 3.951 23H15.05c1.172 0 2.134-.902 2.19-2.054l.63-13.04h.4a.725.725 0 00.731-.718V4.671c0-.99-.82-1.797-1.827-1.797h-4.02z" fill="#21362C" fill-rule="evenodd"/></svg>