<svg width="22" height="22" xmlns="http://www.w3.org/2000/svg" xmlns:xlink="http://www.w3.org/1999/xlink"><defs><path id="a" d="M0 0h22v22H0z"/></defs><g fill="none" fill-rule="evenodd"><mask id="b" fill="#fff"><use xlink:href="#a"/></mask><path d="M19.954 15.445c-.049 1.072-.228 1.655-.379 2.042-.2.514-.438.88-.823 1.265a3.408 3.408 0 01-1.265.823c-.387.15-.97.33-2.042.379-1.16.053-1.508.064-4.445.064-2.937 0-3.285-.011-4.445-.064-1.072-.049-1.655-.228-2.042-.379a3.41 3.41 0 01-1.265-.823 3.408 3.408 0 01-.823-1.265c-.15-.387-.33-.97-.379-2.042-.053-1.16-.064-1.508-.064-4.445 0-2.937.011-3.285.064-4.445.05-1.072.228-1.655.379-2.043.2-.513.438-.88.823-1.264a3.408 3.408 0 011.265-.823c.387-.15.97-.33 2.042-.379 1.16-.053 1.508-.064 4.445-.064 2.937 0 3.285.011 4.445.064 1.072.049 1.655.228 2.042.379.514.2.88.438 1.265.823.385.385.624.751.823 1.264.15.388.33.97.379 2.043.053 1.16.064 1.508.064 4.445 0 2.937-.011 3.285-.064 4.445m1.98-8.98c-.054-1.171-.24-1.97-.511-2.67a5.393 5.393 0 00-1.27-1.949A5.392 5.392 0 0018.206.577c-.7-.271-1.499-.457-2.67-.51C14.362.012 13.987 0 11 0S7.638.013 6.465.066c-1.171.054-1.97.24-2.67.511a5.392 5.392 0 00-1.949 1.27A5.392 5.392 0 00.578 3.794c-.272.7-.458 1.499-.512 2.67C.013 7.638 0 8.013 0 11s.013 3.362.066 4.535c.054 1.171.24 1.97.512 2.67a5.392 5.392 0 001.268 1.949 5.392 5.392 0 001.949 1.268c.7.272 1.499.458 2.67.512C7.638 21.987 8.013 22 11 22s3.362-.013 4.535-.066c1.171-.054 1.97-.24 2.67-.512a5.392 5.392 0 001.949-1.268 5.392 5.392 0 001.269-1.949c.271-.7.457-1.499.51-2.67.054-1.173.067-1.548.067-4.535s-.013-3.362-.066-4.535m-5.062-2.657a1.32 1.32 0 100 2.64 1.32 1.32 0 000-2.64M11 14.667a3.667 3.667 0 110-7.334 3.667 3.667 0 010 7.334m0-9.316a5.649 5.649 0 100 11.298A5.649 5.649 0 0011 5.35" fill="#21362C" mask="url(#b)"/></g></svg>