<svg width="21" height="15" xmlns="http://www.w3.org/2000/svg" xmlns:xlink="http://www.w3.org/1999/xlink"><defs><path id="a" d="M0 0h21v15H0z"/></defs><g fill="none" fill-rule="evenodd"><mask id="b" fill="#fff"><use xlink:href="#a"/></mask><path d="M14.07 7.919l-5.284 2.668c-.207.114-.91-.039-.91-.279V4.832c0-.244.708-.397.916-.276l5.058 2.808c.212.123.435.436.22.555zM21 4.702C21 2.105 18.937 0 16.392 0H4.608C2.063 0 0 2.105 0 4.702v5.595C0 12.895 2.063 15 4.608 15h11.784C18.937 15 21 12.895 21 10.297V4.702z" fill="#21362C" mask="url(#b)"/></g></svg>