<?xml version="1.0" encoding="UTF-8"?>
<svg width="19px" height="23px" viewBox="0 0 19 23" version="1.1" xmlns="http://www.w3.org/2000/svg" xmlns:xlink="http://www.w3.org/1999/xlink">
    <title>Fill 1</title>
    <g id="Welcome" stroke="none" stroke-width="1" fill="none" fill-rule="evenodd">
        <g id="Mobile_KOSÃR" transform="translate(-283.000000, -268.000000)" fill="#21362C">
            <path d="M301,275 L285,275 L285,273.333333 C285,273.149542 285.163136,273 285.363636,273 L300.636364,273 C300.836864,273 301,273.149542 301,273.333333 L301,275 Z M290,270 C290,269.448625 290.373854,269 290.833333,269 L294.166667,269 C294.626146,269 295,269.448625 295,270 L295,271 L290,271 L290,270 Z M296.153846,270.875 L296.153846,270.15625 C296.153846,268.967303 295.170368,268 293.961538,268 L291.038462,268 C289.829632,268 288.846154,268.967303 288.846154,270.15625 L288.846154,270.875 L284.826923,270.875 C283.819558,270.875 283,271.681078 283,272.671875 L283,275.1875 C283,275.58443 283.327202,275.90625 283.730769,275.90625 L284.130135,275.90625 L284.761474,288.946307 C284.81724,290.097924 285.779115,291 286.951269,291 L298.048731,291 C299.22093,291 300.182805,290.097924 300.238526,288.946307 L300.869865,275.90625 L301.269231,275.90625 C301.672798,275.90625 302,275.58443 302,275.1875 L302,272.671875 C302,271.681078 301.180442,270.875 300.173077,270.875 L296.153846,270.875 Z" id="Fill-1"></path>
        </g>
    </g>
</svg>