<?xml version="1.0" encoding="UTF-8"?>
<svg width="22px" height="22px" viewBox="0 0 22 22" version="1.1" xmlns="http://www.w3.org/2000/svg" xmlns:xlink="http://www.w3.org/1999/xlink">
    <title>Group 3</title>
    <defs>
        <polygon id="path-1" points="0 0 22 0 22 22 0 22"></polygon>
    </defs>
    <g id="Welcome" stroke="none" stroke-width="1" fill="none" fill-rule="evenodd">
        <g id="Mobile_OP-Copy" transform="translate(-99.000000, -1196.000000)">
            <g id="Group-3" transform="translate(99.000000, 1196.000000)">
                <mask id="mask-2" fill="white">
                    <use xlink:href="#path-1"></use>
                </mask>
                <g id="Clip-2"></g>
                <path d="M19.9538783,15.4449003 C19.904974,16.5173894 19.7257309,17.0998311 19.5751318,17.4874415 C19.3755848,18.0008931 19.1372199,18.3673699 18.752273,18.752273 C18.3673699,19.1372199 18.0008931,19.3755848 17.4874851,19.5751318 C17.0998748,19.7257309 16.5174331,19.904974 15.4449003,19.9538783 C14.285213,20.0067998 13.9373374,20.0179779 10.9999782,20.0179779 C8.06266263,20.0179779 7.71483067,20.0067998 6.55505606,19.9538783 C5.48256692,19.904974 4.90012524,19.7257309 4.51251486,19.5751318 C3.9990632,19.3755848 3.63263014,19.1372199 3.24772696,18.752273 C2.86282379,18.3673699 2.62441524,18.0008931 2.42486816,17.4874415 C2.2742254,17.0998311 2.09506967,16.5173894 2.04607803,15.4449439 C1.99320024,14.2850383 1.98197844,13.9371191 1.98197844,10.9999782 C1.98197844,8.06288095 1.99320024,7.71496166 2.04607803,6.55505606 C2.09506967,5.48256692 2.2742254,4.90008157 2.42486816,4.5124712 C2.62441524,3.9990632 2.86282379,3.63263014 3.2476833,3.24772696 C3.63263014,2.86278012 3.9990632,2.62437158 4.51251486,2.4248245 C4.90012524,2.2742254 5.48256692,2.09502601 6.55505606,2.04607803 C7.71496166,1.99315657 8.06288095,1.98197844 10.9999782,1.98197844 C13.9371191,1.98197844 14.2850383,1.99315657 15.4449003,2.04607803 C16.5174331,2.09502601 17.0998748,2.2742254 17.4874851,2.4248245 C18.0008931,2.62437158 18.3673699,2.86278012 18.752273,3.2476833 C19.1372199,3.63263014 19.3755848,3.9990632 19.5751318,4.5124712 C19.7257309,4.90008157 19.904974,5.48256692 19.9538783,6.55501239 C20.0067998,7.71496166 20.0180216,8.06288095 20.0180216,10.9999782 C20.0180216,13.9371191 20.0067998,14.2850383 19.9538783,15.4449003 M21.9338045,6.46471407 C21.8804027,5.29384865 21.6944353,4.49426307 21.4225361,3.79453836 C21.1413799,3.07123477 20.765297,2.45774758 20.1537747,1.8462253 C19.5422088,1.23470301 18.9287652,0.858576416 18.205418,0.577463922 C17.5057369,0.305520988 16.7061077,0.119597254 15.5352859,0.0661518217 C14.362019,0.0126190604 13.9874206,0 10.9999782,0 C8.01257937,0 7.63798103,0.0126190604 6.46471407,0.0661518217 C5.29384865,0.119597254 4.49426307,0.305520988 3.79458202,0.577463922 C3.07123477,0.858576416 2.45779125,1.23470301 1.8462253,1.8462253 C1.23470301,2.45774758 0.858620081,3.07123477 0.577507587,3.79453836 C0.305564652,4.49426307 0.119597254,5.29384865 0.0661954863,6.46471407 C0.0126627249,7.63798103 0,8.0125357 0,10.9999782 C0,13.9874206 0.0126627249,14.3619753 0.0661954863,15.5352423 C0.119597254,16.7061077 0.305564652,17.5056933 0.577507587,18.205418 C0.858620081,18.9287216 1.23470301,19.5422088 1.8462253,20.153731 C2.45779125,20.765297 3.07123477,21.1413799 3.79458202,21.4224924 C4.49426307,21.6944353 5.29384865,21.8804027 6.46471407,21.9337608 C7.63798103,21.9873373 8.01257937,22 10.9999782,22 C13.9874206,22 14.362019,21.9873373 15.5352859,21.9337608 C16.7061077,21.8804027 17.5057369,21.6944353 18.205418,21.4224924 C18.9287652,21.1413799 19.5422088,20.765297 20.1537747,20.153731 C20.765297,19.5422088 21.1413799,18.9287652 21.4225361,18.205418 C21.6944353,17.5056933 21.8804027,16.7061077 21.9338045,15.5352423 C21.9873373,14.3619753 22,13.9874206 22,10.9999782 C22,8.01257937 21.9873373,7.63798103 21.9338045,6.46471407 M16.8718147,3.8081617 C16.1428347,3.8081617 15.5518348,4.39911798 15.5518348,5.12818528 C15.5518348,5.85716526 16.1428347,6.44816519 16.8718147,6.44816519 C17.6008384,6.44816519 18.1918383,5.85716526 18.1918383,5.12818528 C18.1918383,4.39911798 17.6008384,3.8081617 16.8718147,3.8081617 M10.9999782,14.6666667 C8.97494646,14.6666667 7.33333333,13.0250099 7.33333333,10.9999782 C7.33333333,8.97494646 8.97494646,7.33328967 10.9999782,7.33328967 C13.0250099,7.33328967 14.6666667,8.97494646 14.6666667,10.9999782 C14.6666667,13.0250099 13.0250099,14.6666667 10.9999782,14.6666667 M10.9999782,5.35131123 C7.88031939,5.35131123 5.35135489,7.88031939 5.35135489,10.9999782 C5.35135489,14.1196369 7.88031939,16.6486014 10.9999782,16.6486014 C14.1196806,16.6486014 16.6486451,14.1196369 16.6486451,10.9999782 C16.6486451,7.88031939 14.1196806,5.35131123 10.9999782,5.35131123" id="Fill-1" fill="#21362C" mask="url(#mask-2)"></path>
            </g>
        </g>
    </g>
</svg>