<?xml version="1.0" encoding="UTF-8"?>
<svg width="21px" height="15px" viewBox="0 0 21 15" version="1.1" xmlns="http://www.w3.org/2000/svg" xmlns:xlink="http://www.w3.org/1999/xlink">
    <title>Group 3</title>
    <defs>
        <polygon id="path-1" points="0 0 21 0 21 15 0 15"></polygon>
    </defs>
    <g id="Welcome" stroke="none" stroke-width="1" fill="none" fill-rule="evenodd">
        <g id="Mobile_OP-Copy" transform="translate(-53.000000, -1201.000000)">
            <g id="Group-3" transform="translate(53.000000, 1201.000000)">
                <mask id="mask-2" fill="white">
                    <use xlink:href="#path-1"></use>
                </mask>
                <g id="Clip-2"></g>
                <path d="M14.0704848,7.91901772 L8.78587522,10.586903 C8.57909377,10.7013431 7.87521905,10.5481602 7.87521905,10.3079552 L7.87521905,4.83151872 C7.87521905,4.58833347 8.58435092,4.4351506 8.79230063,4.55555114 L13.8502684,7.36410236 C14.062307,7.48748311 14.2848599,7.80040531 14.0704848,7.91901772 L14.0704848,7.91901772 Z M21,4.70217754 C21,2.10522133 18.9374426,0 16.3923952,0 L4.60818892,0 C2.0631415,0 0,2.10522133 0,4.70217754 L0,10.2972264 C0,12.8947787 2.0631415,15 4.60818892,15 L16.3923952,15 C18.9374426,15 21,12.8947787 21,10.2972264 L21,4.70217754 Z" id="Fill-1" fill="#21362C" mask="url(#mask-2)"></path>
            </g>
        </g>
    </g>
</svg>