<svg version="1.1" id="Layer_1" xmlns="http://www.w3.org/2000/svg" x="0" y="0" viewBox="0 0 132.47 173.47" xml:space="preserve"><style>.st0{fill:#21362c}</style><path class="st0" d="M24.85 146.09l-1.69-2.29 1.77-3.6-.8-.34-2.51 1.85-1.5-2.04 7.5-5.53 1.5 2.04-3.26 2.4c.28-.05.75-.07 1.42-.09l3.46-.12 1.63 2.22-5.1.11-2.42 5.39zm6.49 6.18l-4.06-3.75 6.32-6.84 4.06 3.75-1.37 1.48-2.21-2.05-.99 1.08 2.05 1.89-1.37 1.48-2.05-1.89-1.19 1.29 2.21 2.05-1.4 1.51zm10.88 7.14l-2.84-1.68.41-7.38-.05-.03c-.46.93-.82 1.63-1.1 2.1l-2.14 3.61-1.92-1.14 4.74-8.02 2.83 1.67-.38 7.3.03.02c.43-.84.79-1.5 1.08-1.99l2.14-3.62 1.93 1.14-4.73 8.02zm13.32-.49c-.46 1.49-1.22 2.5-2.28 3.06-1.07.55-2.34.6-3.82.14l-2.88-.89 2.74-8.9 3.08.95c1.43.44 2.42 1.14 2.97 2.11.55.98.61 2.15.19 3.53zm-2.52-.68c.25-.82.28-1.47.07-1.96-.2-.49-.63-.84-1.29-1.04l-.7-.22-1.53 4.99.54.16c.73.22 1.33.18 1.8-.14s.84-.92 1.11-1.79zm10.68 6.53l-5.5-.55.92-9.27 5.5.55-.2 2.01-3-.3-.14 1.46 2.78.28-.2 2.01-2.78-.28-.17 1.75 3 .3-.21 2.04zm6.23-3.53l.3 3.38-2.51.22-.82-9.28 3.04-.27c2.52-.22 3.86.58 4.02 2.41.09 1.07-.36 1.95-1.35 2.63l3.06 3.8-2.84.25-2.27-3.2-.63.06zm-.17-1.89l.47-.04c.88-.08 1.28-.5 1.21-1.28-.06-.64-.51-.92-1.37-.84l-.5.04.19 2.12zm9.13 4l-2.61-8.94 2.42-.71 2.04 6.99 3.44-1.01.57 1.95-5.86 1.72zm6.96-13.17l-.09-.16c.25-.92.41-1.52.47-1.78s.1-.49.13-.69l2.41-1.27.06.12c-.17.4-.43.92-.76 1.57s-.59 1.13-.77 1.44l-1.45.77zm7.64 7.34l-1.22-1.33-2.68 1.41.4 1.76-2.45 1.29-1.67-9.69 2.97-1.57 7.08 6.84-2.43 1.29zm-2.64-2.91l-1.07-1.17c-.24-.26-.55-.59-.92-1.01-.37-.41-.63-.72-.77-.9.07.21.17.56.3 1.05.13.49.37 1.47.71 2.95l1.75-.92zm14.77-6.36l-2.48 2.18-6.89-2.68-.04.04c.74.72 1.29 1.29 1.65 1.7l2.77 3.15-1.67 1.47-6.15-7 2.47-2.17 6.82 2.62.03-.03c-.66-.67-1.18-1.21-1.56-1.64l-2.78-3.16 1.68-1.48 6.15 7zm-.53-11.19c-.35.48-.43 1.01-.23 1.57s.65 1.09 1.35 1.6c1.45 1.05 2.58 1.03 3.38-.08.24-.33.43-.69.56-1.07.13-.38.25-.78.35-1.19l1.72 1.25c-.18.83-.55 1.64-1.13 2.44-.83 1.14-1.79 1.77-2.89 1.9-1.1.13-2.27-.26-3.52-1.17-.78-.57-1.36-1.21-1.74-1.93-.38-.72-.53-1.48-.44-2.26.08-.78.39-1.55.93-2.29a6.55 6.55 0 012.23-1.95l1.15 1.79c-.33.18-.64.38-.94.6-.29.2-.55.47-.78.79z"/><path class="st0" d="M127.25 40.45a66.17 66.17 0 00-14.18-21.05A65.896 65.896 0 0092.02 5.22C83.84 1.75 75.16 0 66.23 0s-17.6 1.75-25.78 5.22A65.734 65.734 0 0019.4 19.4 65.734 65.734 0 005.22 40.45 65.715 65.715 0 00.39 59.08c-.1.17-.18.36-.2.58-.03.24.01.47.08.68A63.83 63.83 0 000 66.23v41c0 8.93 1.75 17.61 5.22 25.79a66.17 66.17 0 0014.18 21.05 65.896 65.896 0 0021.05 14.18c8.18 3.46 16.86 5.22 25.79 5.22s17.61-1.75 25.79-5.22a66.17 66.17 0 0021.05-14.18 65.896 65.896 0 0014.18-21.05 65.858 65.858 0 005.22-25.79v-41c-.01-8.93-1.77-17.6-5.23-25.78zM2.9 66.23c0-1.59.06-3.18.18-4.76l22.17 2.82c-.03.64-.05 1.29-.05 1.94v19.05H2.9V66.23zm36.36-26.97c7.2-7.2 16.78-11.17 26.97-11.17S86 32.06 93.21 39.26c2.05 2.05 3.84 4.3 5.35 6.69.05.17.12.34.24.49.06.08.13.15.2.22 2.9 4.83 4.68 10.25 5.21 15.93-.04.16.03.75.07.87.07.92.1 1.84.1 2.77v41c0 2.53-.24 5.02-.72 7.44-.22-.02-.44 0-.66.08l-2.73 1.01a39.469 39.469 0 01-13.52 2.37c-6.6 0-13.09-1.65-18.85-4.77-.03-.07-.06-.14-.09-.2-.04-.06-.08-.12-.13-.17V97.84c2.76 1.46 8.62 4.03 15.49 4.03 9.37 0 16.87-4.79 17.18-5l1.87-1.21-1.87-1.21c-.31-.2-7.81-5-17.18-5-.47 0-.94.02-1.41.04 2.7-1.62 5.49-3.67 8.06-6.23 9.04-9.04 11.64-20.89 11.75-21.39l.46-2.18-2.18.46c-.5.11-12.35 2.71-21.39 11.75a40.927 40.927 0 00-4.39 5.22c1.07-4.22 1.83-9.03 1.83-14.16 0-16.7-8.1-30.04-8.44-30.6l-1.23-2-1.23 2c-.34.56-8.44 13.9-8.44 30.6 0 5.13.76 9.94 1.83 14.16A39.591 39.591 0 0054 71.9c-9.04-9.04-20.89-11.64-21.39-11.75l-2.18-.46.46 2.18c.11.5 2.71 12.35 11.75 21.39 2.57 2.57 5.36 4.61 8.06 6.23-.46-.02-.93-.04-1.41-.04-9.37 0-16.87 4.79-17.18 5l-1.87 1.21 1.87 1.21c.31.2 7.81 5 17.18 5 6.87 0 12.73-2.57 15.49-4.03v15.3c-.02.02-.03.04-.05.07a.3.3 0 01-.04.08 39.595 39.595 0 01-18.99 4.84c-4.48 0-8.88-.74-13.07-2.21-.03-.01-.07-.02-.11-.03l-3.68-.98c-.51-2.5-.77-5.07-.77-7.68v-41c.02-10.18 3.99-19.76 11.19-26.97zm26.97 50.52c-2.25-4.42-6.78-14.81-6.78-26.82 0-11.98 4.53-22.39 6.78-26.81 2.25 4.42 6.78 14.83 6.78 26.81 0 11.98-4.53 22.39-6.78 26.82zm3.57 5.88c2.75-1.34 7.74-3.32 13.37-3.32 5.64 0 10.63 1.98 13.38 3.32-2.74 1.34-7.72 3.32-13.38 3.32-5.63 0-10.63-1.98-13.37-3.32zm.41-4.16c1.2-3.81 4.2-11.46 10.3-17.56 6.09-6.09 13.75-9.1 17.57-10.3-1.2 3.81-4.2 11.46-10.3 17.56-6.1 6.1-13.76 9.1-17.57 10.3zm-7.95.01c-3.81-1.2-11.46-4.2-17.56-10.3-6.09-6.09-9.1-13.75-10.3-17.56 3.81 1.2 11.47 4.21 17.56 10.3 6.09 6.08 9.09 13.75 10.3 17.56zm.41 4.15c-2.75 1.34-7.74 3.32-13.37 3.32S38.67 97 35.92 95.66c2.75-1.34 7.74-3.32 13.37-3.32s10.64 1.98 13.38 3.32zm-30.93 23.01c4.48 1.56 9.18 2.35 13.97 2.35 7.2 0 14.26-1.82 20.52-5.28a42.554 42.554 0 0020.52 5.28c4.98 0 9.86-.86 14.52-2.54l1.61-.6c-1.77 6.11-5.05 11.7-9.67 16.32-7.2 7.2-16.78 11.17-26.97 11.17s-19.77-3.97-26.97-11.17c-4.56-4.56-7.82-10.07-9.6-16.08l2.07.55zm75.48-54.5l22.16-2.81c.12 1.62.19 3.24.19 4.88v19.05h-22.3V66.23c.01-.69-.01-1.38-.05-2.06zm21.88-5.7l-22.12 2.81a40.86 40.86 0 00-5.07-15.35l17.97-13.39a63.08 63.08 0 019.22 25.93zm-10.82-28.35l-17.9 13.34a41.355 41.355 0 00-12.82-12.3L99.14 12.1a63.5 63.5 0 0111.88 9.34c2.69 2.7 5.11 5.6 7.26 8.68zM96.63 10.66l-11.6 19.09c-5.23-2.7-11.11-4.3-17.35-4.52V2.91a62.938 62.938 0 0128.95 7.75zM41.57 7.88a62.938 62.938 0 0123.21-4.97v22.31c-6.51.23-12.63 1.96-18.02 4.88-.03-.1-.08-.2-.13-.29L35.2 11.01c2.06-1.16 4.18-2.2 6.37-3.13zM21.45 21.45c3.43-3.43 7.2-6.43 11.27-8.96l11.44 18.83c.05.08.1.15.16.22a41.189 41.189 0 00-12.55 12.42L13.86 30.6c2.23-3.26 4.76-6.32 7.59-9.15zM7.88 41.57c1.26-2.97 2.73-5.82 4.4-8.54l17.99 13.4c-2.5 4.53-4.17 9.59-4.8 14.96l-22.12-2.8c.71-5.85 2.22-11.55 4.53-17.02zm116.71 90.32a63.299 63.299 0 01-13.56 20.13 63.025 63.025 0 01-20.13 13.56c-7.82 3.31-16.12 4.99-24.66 4.99s-16.84-1.68-24.66-4.99a63.299 63.299 0 01-20.13-13.56 63.025 63.025 0 01-13.56-20.13c-3.31-7.82-4.99-16.12-4.99-24.66V88.18h22.3v19.05c0 22.67 18.37 41.04 41.04 41.04s41.04-18.37 41.04-41.04V88.18h22.3v19.05c-.01 8.54-1.68 16.84-4.99 24.66z"/></svg>